<svg width="19" height="10" viewBox="0 0 19 10" fill="none" xmlns="http://www.w3.org/2000/svg">
<path d="M6.5 3C7.43026 2.37983 8.5 0.5 8.5 0.5C8.5 0.5 9.07379 2.07379 10 3C10.9242 3.92423 12.9911 4.9954 13 4.99999L15 6.25001L16.3549 5.40323L17 5.83333L15.0001 7.49999L12.3966 5.33051C11.7109 5.72018 10.6081 6.3919 10 7C9.07379 7.92621 8.5 9.5 8.5 9.5C8.5 9.5 7.9434 7.94972 6.5 7C5.0566 6.05028 0 5 0 5C0 5 5 4 6.5 3Z" fill="white" fill-opacity="0.16"/>
<path d="M15.0001 2.49999L13 4.16666L13.6452 4.59677L15 3.75001C15 3.75001 16.25 4.49997 17 4.99999C17.75 5.5 18 5.49999 18 5.49999H19V4.49999H17.4L15.0001 2.49999Z" fill="white" fill-opacity="0.16"/>
</svg>
